<?xml version="1.0" ?><!DOCTYPE svg  PUBLIC '-//W3C//DTD SVG 1.1//EN'  'http://www.w3.org/Graphics/SVG/1.1/DTD/svg11.dtd'><svg enable-background="new 0 0 24 24" height="24px" id="Layer_1" version="1.1" viewBox="0 0 24 24" width="24px" xml:space="preserve" xmlns="http://www.w3.org/2000/svg" xmlns:xlink="http://www.w3.org/1999/xlink"><g><g><g><g><g><path d="M17.197,23.985l-0.467-0.917c-1.225-2.401-2.631-3.775-4.53-4.418c-1.953,2.386-4.406,4-7.294,4.801l-0.662,0.184       l-0.29-0.622c-0.812-1.743-1.029-2.235-1.556-3.504l-0.364-0.88l0.926-0.219c2.491-0.59,3.375-1.288,4.635-3.696       c-0.073-3.917,1.116-7.021,3.188-8.319l0.324-0.203l0.362,0.12c0.688,0.23,1.592,0.705,2.319,1.086       c0.39,0.204,0.894,0.469,1.04,0.517l0.695,0.223L15.41,8.678c0.074,0.037,0.199,0.084,0.385,0.127       c0.195,0.042,0.465,0.092,0.797,0.092c0.803,0,1.539-0.304,2.188-0.903l0.711-0.656l0.52,0.815       c0.934,1.458,1.678,2.884,1.684,2.896l0.271,0.518l-0.416,0.421c-0.098,0.099-2.424,2.407-5.492,2.407       c-0.021,0-0.041,0-0.059,0c1.436,0.868,3.979,2.73,5.127,5.549l0.225,0.551l-0.807,0.666c-0.973,0.801-1.252,1.032-2.564,2.156       L17.197,23.985z M11.911,17.713l0.263,0.079c2.262,0.672,3.889,2.186,5.277,4.908l0,0c1.318-1.129,1.6-1.36,2.523-2.122       l0.4-0.33c-1.025-2.517-3.512-4.52-5.498-5.557l-0.229-0.119l0.058-1.069l0.451,0.004c0.299,0.052,0.602,0.078,0.9,0.078       c2.732,0,4.824-2.075,4.916-2.167c-0.014-0.027-0.734-1.403-1.645-2.828c-0.803,0.742-1.723,1.118-2.736,1.118       c-0.414,0-0.754-0.064-0.973-0.112c-1.061-0.24-1.079-0.715-1.038-0.909c-0.199-0.064-0.566-0.254-1.147-0.56       c-0.721-0.378-1.594-0.836-2.219-1.046l0,0.001C9.369,8.238,8.32,11.123,8.409,14.8l0.002,0.104l-0.048,0.092       c-1.391,2.688-2.463,3.552-5.215,4.203l0,0c0.521,1.255,0.737,1.742,1.542,3.473l0,0c2.807-0.778,5.179-2.374,7.051-4.742       L11.911,17.713z"/></g></g></g></g><g><g><g><g><path d="M15.053,6.468c-1.756,0-3.186-1.448-3.186-3.228c0-1.778,1.43-3.226,3.186-3.226c1.738,0,3.205,1.477,3.205,3.226       C18.258,4.99,16.791,6.468,15.053,6.468z M15.053,0.825c-1.311,0-2.375,1.084-2.375,2.416c0,1.333,1.064,2.417,2.375,2.417       c1.297,0,2.396-1.107,2.396-2.417C17.449,1.931,16.35,0.825,15.053,0.825z"/></g></g></g></g></g></svg>